<svg width="154.76" height="221.01" overflow="hidden" version="1.1" xmlns="http://www.w3.org/2000/svg">
 <g fill="#fff" aria-label="î‚">
  <path d="m115.94 11.128h38.818v209.88h-154.76v-209.88h38.818v-11.128h77.119zm-66.25 0v11.128h55.381v-11.128zm93.94 198.75v-187.62h-27.69v10.869h-77.119v-10.869h-27.69v187.62zm-88.247-154.5v10.869h77.119v-10.869zm60.557 33.125v-11.128h-60.557v11.128zm-60.557 16.563v10.869h77.119v-10.869zm60.557 33.125v-11.128h-60.557v11.128zm-60.557 16.562v10.869h77.119v-10.869zm0 21.997v11.128h60.557v-11.128zm-16.562-13.716c0-2.3291-1.0352-4.3994-2.5879-5.9522-1.5527-1.5527-3.623-2.3291-5.6934-2.3291-2.5879 0-4.3994 0.77637-5.9521 2.3291-1.5527 1.5527-2.3291 3.623-2.3291 5.9522s0.77637 4.3994 2.3291 5.9522c1.5527 1.5527 3.3643 2.3291 5.9521 2.3291 2.0703 0 4.1406-0.77637 5.6934-2.3291 1.5527-1.5527 2.5879-3.623 2.5879-5.9522zm0-99.375c0-2.3291-1.0352-4.3994-2.5879-5.9521-1.5527-1.5527-3.623-2.3291-5.6934-2.3291-2.5879 0-4.3994 0.77637-5.9521 2.3291s-2.3291 3.623-2.3291 5.9521c0 2.3291 0.77637 4.3994 2.3291 5.9521 1.5527 1.5527 3.3643 2.3291 5.9521 2.3291 2.0703 0 4.1406-0.77637 5.6934-2.3291 1.5527-1.5527 2.5879-3.623 2.5879-5.9521zm0 49.688c0-2.3291-1.0352-4.3994-2.5879-5.9522-1.5527-1.5527-3.623-2.3291-5.6934-2.3291-2.5879 0-4.3994 0.77637-5.9521 2.3291-1.5527 1.5527-2.3291 3.623-2.3291 5.9522s0.77637 4.3994 2.3291 5.9522c1.5527 1.5527 3.3643 2.3291 5.9521 2.3291 2.0703 0 4.1406-0.77637 5.6934-2.3291 1.5527-1.5527 2.5879-3.623 2.5879-5.9522z" fill="#fff"/>
 </g>
</svg>
