<svg width="221.01" height="180.63" overflow="hidden" version="1.1" xmlns="http://www.w3.org/2000/svg">
 <g fill="#fff" aria-label="">
  <path d="m138.97 95.493c-0.25879 0-3.623-5.6934-10.093-17.08-6.7285-11.128-10.869-18.374-12.939-21.997-1.8115-2.5879-3.1055-5.9521-4.1406-9.5752-1.0352-3.623-1.294-7.5049-1.294-11.646 0-9.0576 3.1055-16.821 9.5752-23.291 6.4697-6.4697 14.233-9.834 23.291-9.834s16.821 3.3643 23.291 9.834c6.4697 6.4697 9.834 14.233 9.834 23.291 0 4.1406-0.51758 8.0225-1.2939 11.646-1.0352 3.623-2.3291 6.9873-3.8818 9.5752-2.0703 3.623-6.4697 10.869-12.939 21.997-6.7285 11.387-10.093 17.08-10.093 17.08l-4.6582 8.0225zm4.6582-82.554c-6.2109 0-11.387 2.3291-15.527 6.4697-4.3994 4.3994-6.4697 9.5752-6.4697 15.786 0 3.1055 0.25879 5.9521 0.77637 8.54 0.51757 2.8467 1.5527 5.1758 2.8467 6.7285l0.25879 0.25879c1.2939 2.5879 3.8818 6.9873 7.7637 13.716 3.8818 6.7285 7.2461 12.422 10.352 17.339 2.8467-4.917 6.2109-10.61 10.093-17.339 3.8818-6.7285 6.4697-11.128 8.0225-13.716l0.25879-0.25879c1.0352-1.5527 2.0703-3.8818 2.5879-6.7285 0.51758-2.5879 1.0352-5.4346 1.0352-8.54 0-6.2109-2.3291-11.387-6.4697-15.786-4.3994-4.1406-9.5752-6.4697-15.527-6.4697zm11.128 22.256c0-3.1055-1.294-5.6934-3.3643-7.7637-2.0703-2.0703-4.6582-3.3643-7.7637-3.3643s-5.9522 1.2939-8.0225 3.3643c-2.0703 2.0703-3.1055 4.6582-3.1055 7.7637 0 3.1055 1.0352 5.6934 3.1055 7.7637 2.0703 2.0703 4.917 3.1055 8.0225 3.1055s5.6934-1.0352 7.7637-3.1055c2.0703-2.0703 3.3643-4.6582 3.3643-7.7637zm26.138-23.809 40.112-11.387v155.01l-77.378 23.809-66.25-21.997-77.378 23.809v-155.01l77.637-24.067 28.984 9.5752c-1.0352 1.8115-2.0703 3.623-2.8467 5.1758-0.77636 1.5527-1.5527 3.3643-2.0703 4.917l-18.633-6.2109v132.24l55.122 18.374v-49.688h11.128v49.688l60.815-18.374v-131.98l-24.326 6.2109c-0.77637-1.8115-1.5527-3.623-2.3291-5.1758-0.77637-1.5527-1.5527-3.3643-2.5879-4.917zm-108.95 135.61v-131.72l-60.815 18.374v131.72z" fill="#fff"/>
 </g>
</svg>
