<svg width="221.01" height="178.82" overflow="hidden" version="1.1" xmlns="http://www.w3.org/2000/svg">
 <g fill="#fff" aria-label="">
  <path d="m204.44 178.82v-46.323h16.562v-93.94h-132.5v93.94h69.355zm-105.07-57.451v-71.685h110.5v71.685h-16.562v30.796l-30.796-30.796zm-82.812 24.326 46.582-46.323h14.233v-11.128h-18.892l-30.796 30.796v-30.796h-16.562v-77.378h115.94v16.562h11.128v-27.432h-138.19v99.375h16.562z" fill="#fff"/>
 </g>
 <g transform="translate(175.11 29.086)" fill="#fff" style="shape-inside:url(#rect3710);white-space:pre" aria-label="FAQ">
  <path d="m-65.372 71.669v-33.359h22.809v5.7422h-15.677v9.1829h12.145v5.5599h-12.145v12.874z"/>
  <path d="m-20.004 65.13h-13.581l-2.2331 6.5397h-6.722l12.191-33.359h8.1576l12.008 33.359h-7.5879zm-1.709-5.1725-5.0358-14.857-5.0814 14.857z"/>
  <path d="m15.68 70.598q-3.304 1.5951-7.1322 1.5951-6.722 0-11.074-4.4889-4.6712-4.8307-4.6712-12.669 0-7.793 4.7852-12.692 4.4661-4.5573 11.074-4.5573 6.6764 0 11.074 4.4889 4.7168 4.7852 4.7168 12.601 0 7.5651-4.4206 12.464l3.7826 4.0104-4.1016 3.5319zm-4.2839-4.6029-3.0762-3.304 3.9876-3.5547 3.099 3.304q1.6178-3.0306 1.6178-7.4056 0-5.2637-2.2103-8.3398-2.2559-3.1673-6.1979-3.1673-4.2839 0-6.5169 3.5775-1.8685 3.0078-1.8685 7.8841 0 5.8789 2.6888 8.9551 2.2331 2.5065 5.765 2.5065 1.4128 0 2.7116-0.45573z"/>
 </g>
</svg>
