<svg width="219.45" height="221.01" overflow="hidden" version="1.1" xmlns="http://www.w3.org/2000/svg">
 <g transform="translate(-529.33 -226.56)" fill="#fff" aria-label="">
  <path d="m737.4 326.45 11.387 2.5879-2.3291 10.61-11.128-2.3291c-0.51758 0-0.77637-0.25879-0.77637-0.25879h-0.51757c-1.294 0-2.3291 0.51758-3.3643 1.294-1.0352 0.77636-1.8115 1.5527-2.0703 2.5879l-20.962 75.049c2.5879 1.294 4.917 3.3643 6.7285 5.9522 1.8115 2.5879 2.8467 5.6934 2.8467 9.0576 0 4.6582-1.8115 8.54-4.917 11.646-3.1055 3.3643-6.9873 4.917-11.646 4.917-3.623 0-6.9873-1.0352-9.5752-3.1055-2.8467-2.0703-4.917-4.6582-5.9522-8.0225h-29.502c-1.2939 3.3643-3.3643 5.9522-6.2109 8.0225s-5.9522 3.1055-9.3164 3.1055c-4.6582 0-8.7988-1.5527-11.904-4.917-3.1055-3.1055-4.6582-6.9873-4.6582-11.646s1.5527-8.54 4.6582-11.646 7.2461-4.917 11.904-4.917c3.3642 0 6.4697 1.0352 9.3164 3.1055s4.917 4.6582 6.2109 7.7637h29.502c0.77637-2.3291 2.0703-4.3994 4.1406-6.4697 2.0703-1.8115 4.3994-3.1055 6.9873-3.8818l1.8115-6.2109h-58.228c-3.623 0-6.9873-1.0352-9.834-3.1055s-4.917-4.6582-5.9522-8.2812l-10.869-32.866c-0.51757-0.77637-0.77636-1.5527-0.77636-2.5879-0.25879-0.77637-0.25879-1.8115-0.25879-2.8467 0-4.3994 1.5527-8.2812 4.917-11.646 3.1055-3.1055 6.9873-4.917 11.646-4.917h87.729l1.294-4.3994c1.0352-3.623 2.8467-6.4697 5.9521-8.7988 2.8467-2.0703 6.2109-3.3643 10.093-3.3643 0.51758 0 1.0352 0.25879 1.5527 0.25879s1.294 0.25879 2.0703 0.25879zm-97.563 71.426h61.074l12.422-44.253h-84.624c-1.5527 0-2.8467 0.77637-3.8818 1.8115-1.0352 1.0352-1.5527 2.3291-1.5527 3.623v1.0352c0 0.51757 0.25879 0.77636 0.25879 0.77636l11.128 33.125c0.25879 1.294 0.77636 2.3291 1.8115 2.8467 1.0352 0.77637 2.0703 1.0352 3.3643 1.0352zm0 38.56c1.5527 0 2.8467-0.51758 3.8818-1.5527 1.0352-1.0352 1.5527-2.3291 1.5527-3.8818s-0.51758-2.8467-1.5527-3.8818c-1.0352-1.0352-2.3291-1.8115-3.8818-1.8115-1.5527 0-2.8467 0.77637-3.8818 1.8115-1.0352 1.0352-1.5527 2.3291-1.5527 3.8818s0.51758 2.8467 1.5527 3.8818c1.0352 1.0352 2.3291 1.5527 3.8818 1.5527zm60.815 0c1.2939 0 2.5879-0.51758 3.623-1.5527 1.0352-1.0352 1.8115-2.3291 1.8115-3.8818s-0.77637-2.8467-1.8115-3.8818c-1.0352-1.0352-2.3291-1.8115-3.623-1.8115-1.5527 0-3.1055 0.77637-4.1406 1.8115-1.0352 1.0352-1.5527 2.3291-1.5527 3.8818s0.51758 2.8467 1.5527 3.8818c1.0352 1.0352 2.5879 1.5527 4.1406 1.5527zm-55.64-104.81h-16.304c-4.6582-3.623-9.834-6.2109-15.527-8.2812-5.6934-1.8115-11.387-2.8467-17.598-2.8467-7.7637 0-14.751 1.5527-21.479 4.3994-6.7285 3.1055-12.681 6.9873-17.598 11.904s-8.7988 10.61-11.646 17.339c-3.1055 6.7285-4.3994 13.975-4.3994 21.479h-11.128c0-7.5049 1.2939-14.751 3.8818-21.738 2.3291-6.9873 5.6934-13.198 10.093-18.892 4.3994-5.6934 9.5752-10.352 15.786-14.492 5.9522-3.8818 12.422-6.7285 19.668-8.7988-8.0225-3.1055-14.492-8.54-19.668-16.045-5.1758-7.2461-7.5049-15.527-7.5049-24.844 0-11.904 4.1406-22.256 12.939-31.055 8.54-8.7988 18.892-13.198 31.055-13.198 12.163 0 22.515 4.3994 31.313 13.198 8.54 8.7988 12.939 19.15 12.939 31.055 0 9.3164-2.5879 17.598-7.7637 24.844-5.1758 7.5049-11.646 12.939-19.668 16.045 6.2109 1.5527 11.904 4.1406 17.598 7.5049 5.6934 3.3643 10.61 7.5049 15.01 12.422zm-82.554-60.815c0 9.3164 3.1055 17.08 9.834 23.55 6.4697 6.4697 14.233 9.5752 23.291 9.5752s16.821-3.1055 23.291-9.5752c6.4697-6.4697 9.834-14.233 9.834-23.55 0-9.0576-3.3643-16.821-9.834-23.291-6.4697-6.4697-14.233-9.834-23.291-9.834s-16.821 3.3643-23.291 9.834c-6.7285 6.4697-9.834 14.233-9.834 23.291z" fill="#fff"/>
 </g>
</svg>
