<?xml version="1.0" encoding="UTF-8" standalone="no"?>
<svg
   width="132.5"
   height="221.00586"
   overflow="hidden"
   version="1.1"
   id="svg1559"
   sodipodi:docname="speakers.svg"
   inkscape:version="1.1.1 (3bf5ae0d25, 2021-09-20)"
   xmlns:inkscape="http://www.inkscape.org/namespaces/inkscape"
   xmlns:sodipodi="http://sodipodi.sourceforge.net/DTD/sodipodi-0.dtd"
   xmlns="http://www.w3.org/2000/svg"
   xmlns:svg="http://www.w3.org/2000/svg">
  <sodipodi:namedview
     id="namedview1561"
     pagecolor="#ffffff"
     bordercolor="#666666"
     borderopacity="1.0"
     inkscape:pageshadow="2"
     inkscape:pageopacity="0.0"
     inkscape:pagecheckerboard="0"
     showgrid="false"
     fit-margin-top="0"
     fit-margin-left="0"
     fit-margin-right="0"
     fit-margin-bottom="0"
     inkscape:zoom="0.8265625"
     inkscape:cx="65.935728"
     inkscape:cy="133.6862"
     inkscape:window-width="1920"
     inkscape:window-height="1137"
     inkscape:window-x="-8"
     inkscape:window-y="-8"
     inkscape:window-maximized="1"
     inkscape:current-layer="text1555" />
  <defs
     id="defs1551">
    <clipPath
       id="clip0">
      <rect
         x="0"
         y="0"
         width="1280"
         height="720"
         id="rect1548" />
    </clipPath>
  </defs>
  <g
     aria-label=""
     id="text1555"
     style="font-size:265px;font-family:Bosch-Icon, Bosch-Icon_MSFontService, sans-serif">
    <path
       d="m 66.25,165.625 c -12.163086,0 -22.514648,-4.14063 -31.313477,-12.93945 C 26.137695,144.14551 21.99707,133.79395 21.99707,121.63086 V 44.25293 c 0,-11.904297 4.140625,-22.25586 12.939453,-31.054688 C 43.735352,4.3994141 54.086914,0 66.25,0 78.154297,0 88.505859,4.3994141 97.304687,13.198242 106.10352,21.99707 110.50293,32.348633 110.50293,44.25293 v 77.37793 c 0,12.16309 -4.39941,22.51465 -13.198243,31.05469 C 88.505859,161.48437 78.154297,165.625 66.25,165.625 Z M 33.125,44.25293 v 77.37793 c 0,9.05762 3.105469,16.82129 9.575195,23.29101 6.469727,6.72852 14.233399,9.83399 23.549805,9.83399 9.057617,0 16.821289,-3.10547 23.291016,-9.83399 C 96.010742,138.45215 99.375,130.68848 99.375,121.63086 V 44.25293 c 0,-9.057618 -3.364258,-16.821289 -9.833984,-23.291016 C 83.071289,14.492188 75.307617,11.12793 66.25,11.12793 c -9.316406,0 -17.080078,3.364258 -23.549805,9.833984 C 36.230469,27.431641 33.125,35.195312 33.125,44.25293 Z M 121.37207,82.8125 H 132.5 v 38.81836 c 0,8.79883 -1.55273,16.82129 -4.6582,24.32617 -3.10547,7.76367 -7.50489,14.75098 -12.93946,20.70313 -5.69336,5.95214 -12.16308,10.61035 -19.409176,14.23339 -7.246094,3.88184 -15.268555,6.21094 -23.808594,6.72852 v 22.25586 h 33.125 v 11.12793 H 27.69043 v -11.12793 h 33.125 V 187.62207 C 52.016602,187.10449 44.25293,184.77539 37.006836,180.89355 29.501953,177.27051 23.032227,172.6123 17.597656,166.66016 11.904297,160.70801 7.7636719,153.7207 4.6582031,145.95703 1.5527344,138.45215 0,130.42969 0,121.63086 V 82.8125 h 11.12793 v 38.81836 c 0,7.76367 1.293945,14.75098 4.140625,21.47949 2.846679,6.72852 6.728515,12.68067 11.904297,17.59766 4.916992,4.91699 10.86914,8.79883 17.597656,11.64551 6.728515,3.10546 13.71582,4.39941 21.479492,4.39941 7.504883,0 14.750977,-1.29395 21.479492,-4.39941 6.728516,-2.84668 12.421878,-6.72852 17.597658,-11.64551 4.91699,-4.91699 8.79883,-10.86914 11.9043,-17.59766 2.58789,-6.72851 4.14062,-13.71582 4.14062,-21.47949 z"
       style="font-size:265px;font-family:Bosch-Icon, Bosch-Icon_MSFontService, sans-serif;fill:#ffffff;fill-opacity:1"
       id="path1702" />
  </g>
</svg>
