<svg width="800" height="800" overflow="hidden" version="1.1" xmlns="http://www.w3.org/2000/svg">
 <g transform="matrix(.99584 0 0 .99584 1.6505 1.6331)" fill="#fff" stroke-width=".5193">
  <path d="m108.42 457.45v-63.504h13.58v52.575h28.366v10.929z"/>
  <path d="m159.56 457.45v-46.452h13.057v46.452zm6.5506-67.232c2.1468 0 3.9515 0.73532 5.4263 2.2101 1.411 1.3891 2.1282 3.0685 2.1282 5.0325 0 2.0211-0.71717 3.7415-2.1282 5.1607-1.507 1.4416-3.3231 2.1686-5.4704 2.1686-2.1687 0-3.9852-0.73792-5.459-2.2127-1.4198-1.4198-2.125-3.1173-2.125-5.1166 0-1.9338 0.70523-3.6106 2.125-5.0325 1.4738-1.4748 3.3122-2.2101 5.5032-2.2101z"/>
  <path d="m184.67 457.45v-46.452h12.532v7.2862c3.1289-5.6416 8.066-8.4619 14.841-8.4619 5.6943 0 9.7968 2.2646 12.319 6.8053 1.6114 2.8956 2.4236 6.5384 2.4236 10.929v29.893h-13.055v-28.324c0-6.1313-2.4044-9.1967-7.2018-9.1967-2.7461 0-4.9039 0.89682-6.4629 2.693-1.5621 1.7614-2.3416 4.2286-2.3416 7.4124v27.416z"/>
  <path d="m238.94 411h13.055v28.141c0 3.4704 0.632 5.8971 1.9012 7.2862 1.1025 1.184 2.6495 1.7832 4.6494 1.7832 2.7134 0 4.8494-0.88644 6.4192-2.651 1.5289-1.6976 2.2974-4.1019 2.2974-7.2005v-27.359h13.058v46.452h-12.502v-7.1164c-1.5258 2.6608-3.3231 4.5952-5.3744 5.8114-2.5083 1.5288-5.511 2.2979-8.9738 2.2979-4.8083 0-8.5032-1.7095-11.11-5.1176-2.2756-2.948-3.4192-7.1465-3.4192-12.575z"/>
  <path d="m287.56 457.45 16.219-23.729-15.139-22.723h14.967l8.5469 13.61 8.536-13.61h13.495l-15.139 21.675 16.742 24.777h-15.267l-9.5845-15.321-9.8929 15.321z"/>
  <path d="m405.7 464.4c-2.339 1.6249-4.3789 2.8421-6.1102 3.6428-4.6577 2.2018-10.118 3.3011-16.4 3.3011-12.437 0-22.179-3.9954-29.233-11.976-5.8122-6.6132-8.7172-15.075-8.7172-25.372 0-11.848 3.5698-21.497 10.717-28.92 7.4044-7.6928 17.274-11.538 29.627-11.538 8.6097 0 15.962 1.8783 22.031 5.6286 5.5769 3.4512 9.7538 8.1311 12.532 14.06 2.232 4.764 3.3423 10.043 3.3423 15.833 0 7.2535-1.9443 12.98-5.8116 17.167-3.7609 4.1138-8.6949 6.165-14.797 6.165-3.6653 0-6.5589-0.88591-8.6762-2.6474-1.3237-1.1243-2.3058-2.8011-2.9487-5.0325-3.2353 5.492-7.595 8.2459-13.098 8.2459-3.6648 0-6.7199-1.2172-9.1462-3.6428-3.0115-3.0114-4.5076-7.3381-4.5076-12.97 0-6.7711 1.7314-12.318 5.2025-16.656 3.3781-4.2198 7.6609-6.3343 12.833-6.3343 4.7211 0 8.0006 1.8679 9.8493 5.5985l0.86674-4.7749h10.842l-3.7276 23.119c-0.16982 1.0994-0.25758 2.0512-0.25758 2.8639 0 3.1506 1.3601 4.7204 4.073 4.7204 3.0333 0 5.4045-1.5267 7.1141-4.5952 1.6249-2.9158 2.4257-6.7612 2.4257-11.536 0-8.1202-2.3296-14.498-6.977-19.124-5.1178-5.0652-12.19-7.5978-21.219-7.5978-9.5403 0-17.04 2.9298-22.51 8.7605-5.3417 5.7273-8.025 13.421-8.025 23.078 0 10.064 3.1538 17.756 9.4557 23.075 4.6276 3.9331 10.878 5.8992 18.74 5.8992 4.6582 0 8.7936-0.74934 12.404-2.2563 1.6566-0.6621 3.6866-1.7614 6.1212-3.2902zm-21.164-42.073c-2.864 0-5.0628 1.3351-6.5916 3.9965-1.4748 2.5731-2.2128 5.7787-2.2128 9.6266 0 4.9452 1.8155 7.4145 5.4699 7.4145 3.2904 0 5.7161-1.6467 7.286-4.9359 1.1872-2.5549 1.7755-5.5881 1.7755-9.1136 0-1.6249-0.25706-2.948-0.78001-3.985-0.95138-1.9993-2.6064-3.0031-4.947-3.0031z"/>
  <path d="m431.21 457.45v-63.504h28.153c6.4187 0 11.419 1.293 15.01 3.8563 3.8455 2.7569 5.7685 6.9985 5.7685 12.755 0 4.1907-1.0994 7.5028-3.3013 9.9367-1.2713 1.4114-3.1616 2.7019-5.6839 3.8563 3.2686 1.1544 5.7608 2.5658 7.4703 4.2094 2.6802 2.6614 4.0262 6.4216 4.0262 11.274 0 6.7389-2.5005 11.525-7.5005 14.359-3.7604 2.1686-8.6648 3.257-14.701 3.257zm13.235-10.106h15.142c3.2571 0 5.7358-0.82307 7.4153-2.4807 1.559-1.5594 2.3385-3.7166 2.3385-6.4626 0-5.8343-3.4301-8.76-10.278-8.76h-14.617zm0-27.544h14.05c3.1543 0 5.3744-0.75765 6.6794-2.2537 1.0994-1.3019 1.6436-3.1952 1.6436-5.6837 0-2.6063-0.67199-4.5511-2.029-5.8556-1.4224-1.3019-3.9956-1.9551-7.7243-1.9551h-12.62z"/>
  <path d="m514.28 409.82c6.7314 0 12.286 2.2101 16.657 6.6355 4.423 4.5075 6.6327 10.363 6.6327 17.564 0 7.2862-2.2424 13.215-6.7194 17.786-4.3685 4.4254-9.9267 6.6355-16.658 6.6355-6.7942 0-12.36-2.2101-16.698-6.6355-4.3705-4.4223-6.5506-10.308-6.5506-17.66 0-7.1678 2.2678-13.065 6.8082-17.689 4.3378-4.4254 9.8488-6.6355 16.528-6.6355zm0 10.106c-3.6129 0-6.293 1.5506-8.0244 4.6352-1.3346 2.3737-1.9962 5.5138-1.9962 9.4143 0 5.639 1.2609 9.6459 3.7713 12.017 1.6218 1.5615 3.6622 2.3415 6.1217 2.3415 3.6425 0 6.3128-1.5184 8.0213-4.5516 1.3902-2.4589 2.085-5.694 2.085-9.7227 0-4.0479-0.67303-7.2421-1.9973-9.5836-1.7423-3.0337-4.4033-4.5506-7.9813-4.5506z"/>
  <path d="m542.86 451.41 6.2499-8.3227c2.0191 1.6467 3.9333 2.8639 5.727 3.6428 3.0333 1.3569 6.4198 2.0408 10.151 2.0408 5.7789 0 8.6757-1.5703 8.6757-4.6908 0-1.5262-0.80182-2.639-2.3935-3.3333-1.0693-0.4684-3.7609-1.0895-8.0686-1.8684-4.5616-0.8667-8.0655-2.1166-10.491-3.7275-3.7915-2.5222-5.6839-6.165-5.6839-10.929 0-4.9156 1.9661-8.6649 5.8994-11.241 3.2358-2.1031 7.5737-3.162 13.011-3.162 7.4044 0 13.676 1.8897 18.826 5.6832l-6.1217 8.2381c-3.6975-2.8301-7.8853-4.253-12.576-4.253-4.5076 0-6.7615 1.305-6.7615 3.9113 0 1.4738 0.74677 2.5731 2.2538 3.2902 1.3019 0.60706 3.7385 1.2281 7.3301 1.8679 3.7282 0.66521 6.4743 1.3481 8.2358 2.0429 6.1019 2.423 9.1571 6.6324 9.1571 12.617 0 5.5762-2.3717 9.6682-7.1172 12.275-3.577 1.966-8.1942 2.948-13.834 2.948-6.1866 0-11.518-0.98198-16.006-2.948-2.1037-0.93057-4.2615-2.2864-6.4634-4.0811z"/>
  <path d="m627.57 441.05 10.319 5.0735c-4.0818 8.2157-10.781 12.318-20.129 12.318-6.8186 0-12.318-2.125-16.478-6.378-4.3155-4.3678-6.4603-10.235-6.4603-17.605 0-7.6388 2.2538-13.741 6.7615-18.303 4.2012-4.2203 9.5294-6.3343 16.005-6.3343 8.9634 0 15.522 4.0593 19.692 12.19l-10.802 5.1166c-0.89841-2.0512-1.7657-3.5691-2.5966-4.5506-1.4541-1.7724-3.3963-2.65-5.8579-2.65-3.6716 0-6.3252 1.561-7.9351 4.6794-1.3087 2.4583-1.9578 5.6416-1.9578 9.5389 0 9.4662 3.3859 14.19 10.153 14.19 2.742 0 4.9854-0.95238 6.7199-2.8639 0.87245-0.98146 1.7189-2.4563 2.5654-4.4223z"/>
  <path d="m646.44 457.45v-66.89h13.056v26.987c3.0691-5.1504 7.8209-7.724 14.26-7.724 5.5255 0 9.5762 2.114 12.152 6.3343 1.7605 2.9184 2.6485 6.7202 2.6485 11.4v29.893h-13.056v-28.324c0-6.1313-2.4044-9.1967-7.2029-9.1967-3.012 0-5.2814 1.0365-6.803 3.1204-1.3346 1.7614-1.9994 4.091-1.9994 6.985v27.416z"/>
  <path d="m105.71 382.01h40.6v-4.3927h-35.494v-25.983h28.59v-4.3896h-28.59v-24.913h33.88v-4.3927h-38.986z"/>
  <path d="m161 382.01h5.1069v-28.674c0-8.6976 4.9361-14.339 12.458-14.339 6.8155 0 10.308 4.307 10.308 12.81v30.203h5.1064v-28.674c0-8.6976 4.9262-14.339 12.458-14.339 6.8056 0 10.301 4.307 10.301 12.81v30.203h5.1064v-29.927c0-11.109-5.3744-17.66-14.605-17.66-6.5397 0-11.198 3.0467-14.521 9.4138-2.4995-6.367-6.7204-9.4138-13.257-9.4138-6.0905 0-10.301 2.6941-13.355 8.4318v-7.7157h-5.1069z"/>
  <path d="m244.52 314.53h-5.1059v67.478h5.1059v-9.4143c3.3231 6.6355 8.9634 10.13 16.217 10.13 11.742 0 19.447-9.583 19.447-24.284 0-14.241-7.8853-24.019-19.447-24.019-7.0699 0-12.541 3.4954-16.217 10.311zm15.503 63.802c-9.5839 0-15.675-7.6175-15.675-19.712 0-11.922 6.2712-19.806 15.59-19.806 9.316 0 14.967 7.617 14.967 19.99 0 12.54-5.3853 19.529-14.881 19.529z"/>
  <path d="m326.51 371.62c-4.1249 4.4773-8.2462 6.7202-14.967 6.7202-4.3077 0-7.8006-1.251-10.481-3.6766-3.6757-3.3967-5.2046-7.7863-5.4699-15.682h33.965v-1.7832c0-14.071-7.2559-22.769-18.998-22.769-12.007 0-20.256 9.8619-20.256 24.199 0 14.52 8.43 24.104 21.241 24.104 7.5301 0 12.808-2.2449 18.194-8.1529zm-30.737-17.028c0.80079-5.3742 1.8784-8.0574 4.2937-10.932 2.6064-3.2243 6.2832-4.8377 10.577-4.8377 3.4955 0 6.4551 0.99236 8.698 2.9589 3.0437 2.691 4.4775 6.1869 5.0098 12.811z"/>
  <path d="m375.08 382.01h5.1069v-67.478h-5.1069v30.203c-3.4929-6.8157-8.9628-10.311-16.132-10.311-11.741 0-19.446 9.5945-19.446 24.019 0 14.421 7.8848 24.284 19.531 24.284 7.084 0 12.554-3.4948 16.047-10.13zm-15.503-3.6756c-9.3269 0-14.786-7.2535-14.786-19.627 0-12.455 5.5551-19.891 14.871-19.891 9.4993 0 15.686 7.7967 15.686 19.722 0 12.093-6.1025 19.796-15.771 19.796z"/>
  <path d="m429.83 382.01h5.1069v-67.478h-5.1069v30.203c-3.495-6.8157-8.955-10.311-16.124-10.311-11.742 0-19.444 9.5945-19.444 24.019 0 14.421 7.8858 24.284 19.528 24.284 7.084 0 12.544-3.4948 16.039-10.13zm-15.503-3.6756c-9.3181 0-14.789-7.2535-14.789-19.627 0-12.455 5.5582-19.891 14.885-19.891 9.4988 0 15.672 7.7967 15.672 19.722 0 12.093-6.0874 19.796-15.767 19.796z"/>
  <path d="m485.22 371.62c-4.1249 4.4773-8.2493 6.7202-14.97 6.7202-4.3051 0-7.8006-1.251-10.481-3.6766-3.6762-3.3967-5.202-7.7863-5.4705-15.682h33.965v-1.7832c0-14.071-7.2647-22.769-18.995-22.769-12.01 0-20.259 9.8619-20.259 24.199 0 14.52 8.43 24.104 21.241 24.104 7.5326 0 12.811-2.2449 18.194-8.1529zm-30.74-17.028c0.80182-5.3742 1.8815-8.0574 4.2968-10.932 2.6064-3.2243 6.2821-4.8377 10.577-4.8377 3.4924 0 6.452 0.99236 8.697 2.9589 3.0447 2.691 4.4754 6.1869 5.0109 12.811z"/>
  <path d="m533.78 382.01h5.109v-67.478h-5.109v30.203c-3.4929-6.8157-8.9628-10.311-16.131-10.311-11.742 0-19.444 9.5945-19.444 24.019 0 14.421 7.8847 24.284 19.528 24.284 7.084 0 12.554-3.4948 16.047-10.13zm-15.499-3.6756c-9.33 0-14.789-7.2535-14.789-19.627 0-12.455 5.5577-19.891 14.874-19.891 9.4962 0 15.683 7.7967 15.683 19.722 0 12.093-6.0993 19.796-15.767 19.796z"/>
  <path d="m579.13 317.94h5.1069v64.07h-5.1069z"/>
  <path d="m620.7 382.73c12.271 0 20.97-9.9465 20.97-24.188 0-14.072-8.6985-24.115-20.876-24.115-12.277 0-20.97 9.9476-20.97 24.115 0 14.241 8.5998 24.188 20.876 24.188zm0-4.3917c-9.4982 0-15.59-7.7027-15.59-19.712 0-12.094 6.0916-19.806 15.59-19.806 9.4931 0 15.683 7.7967 15.683 19.806 0 11.914-6.1902 19.712-15.683 19.712z"/>
  <path d="m663 382.01h5.1048v-59.678h19.713v-4.3927h-44.531v4.3927h19.713z"/>
 </g>
</svg>
