<svg width="1122.4" height="301.98" overflow="hidden" version="1.1" xmlns="http://www.w3.org/2000/svg">
 <g fill="#fff">
  <path d="m5.2249 275.21v-122.29h26.151v101.24h54.624v21.046z"/>
  <path d="m103.69 275.21v-89.452h25.144v89.452zm12.614-129.47c4.1342 0 7.6093 1.416 10.449 4.256 2.7171 2.675 4.0982 5.909 4.0982 9.691 0 3.892-1.3811 7.205-4.0982 9.938-2.9021 2.776-6.3992 4.176-10.534 4.176-4.1762 0-7.6743-1.421-10.512-4.261-2.7341-2.734-4.0922-6.003-4.0922-9.853 0-3.724 1.358-6.953 4.0922-9.691 2.8381-2.84 6.3783-4.256 10.597-4.256z"/>
  <path d="m152.06 275.21v-89.452h24.133v14.031c6.0252-10.864 15.533-16.295 28.579-16.295 10.965 0 18.866 4.361 23.722 13.105 3.1031 5.576 4.6672 12.591 4.6672 21.046v57.565h-25.139v-54.544c0-11.807-4.6302-17.71-13.869-17.71-5.2882 0-9.4434 1.727-12.446 5.186-3.0081 3.392-4.5092 8.143-4.5092 14.274v52.794z"/>
  <path d="m256.56 185.76h25.139v54.191c0 6.683 1.217 11.356 3.6612 14.031 2.1231 2.28 5.1022 3.434 8.9534 3.434 5.2252 0 9.3384-1.707 12.362-5.105 2.9441-3.269 4.4242-7.899 4.4242-13.866v-52.685h25.145v89.452h-24.076v-13.704c-2.9381 5.124-6.3993 8.849-10.349 11.191-4.8302 2.944-10.612 4.425-17.281 4.425-9.2594 0-16.375-3.292-21.394-9.855-4.3822-5.677-6.5843-13.762-6.5843-24.215z"/>
  <path d="m350.19 275.21 31.233-45.695-29.152-43.757h28.821l16.459 26.209 16.438-26.209h25.987l-29.152 41.74 32.24 47.712h-29.4l-18.457-29.504-19.051 29.504z"/>
  <path d="m577.7 288.6c-4.5042 3.129-8.4323 5.473-11.766 7.015-8.9694 4.24-19.484 6.357-31.581 6.357-23.949 0-42.711-7.694-56.293-23.063-11.192-12.735-16.787-29.03-16.787-48.859 0-22.816 6.8743-41.397 20.637-55.692 14.259-14.814 33.265-22.219 57.052-22.219 16.58 0 30.738 3.617 42.425 10.839 10.739 6.646 18.783 15.658 24.133 27.076 4.2982 9.174 6.4363 19.339 6.4363 30.489 0 13.968-3.7442 24.996-11.191 33.059-7.2423 7.922-16.744 11.872-28.494 11.872-7.0583 0-12.63-1.706-16.708-5.098-2.5491-2.165-4.4402-5.394-5.6782-9.691-6.2302 10.576-14.626 15.879-25.223 15.879-7.0573 0-12.941-2.344-17.613-7.015-5.7992-5.799-8.6803-14.131-8.6803-24.976 0-13.039 3.3341-23.721 10.018-32.074 6.5053-8.126 14.753-12.198 24.712-12.198 9.0914 0 15.407 3.597 18.967 10.781l1.6691-9.195h20.879l-7.1783 44.52c-0.32701 2.117-0.49602 3.95-0.49602 5.515 0 6.067 2.6191 9.09 7.8433 9.09 5.8412 0 10.407-2.94 13.7-8.849 3.1291-5.615 4.6712-13.02 4.6712-22.215 0-15.637-4.4862-27.919-13.436-36.826-9.8554-9.754-23.474-14.631-40.862-14.631-18.372 0-32.813 5.642-43.347 16.87-10.286 11.029-15.454 25.845-15.454 44.441 0 19.381 6.0732 34.193 18.209 44.436 8.9114 7.574 20.947 11.36 36.088 11.36 8.9704 0 16.934-1.443 23.887-4.345 3.1901-1.275 7.0993-3.392 11.787-6.336zm-40.756-81.019c-5.5152 0-9.7494 2.571-12.694 7.696-2.8401 4.955-4.2612 11.128-4.2612 18.538 0 9.523 3.4961 14.278 10.533 14.278 6.3363 0 11.007-3.171 14.031-9.505 2.2861-4.92 3.4191-10.761 3.4191-17.55 0-3.129-0.49502-5.677-1.5021-7.674-1.8321-3.85-5.0192-5.783-9.5264-5.783z"/>
  <path d="m626.81 275.21v-122.29h54.214c12.36 0 21.989 2.49 28.904 7.426 7.4053 5.309 11.108 13.477 11.108 24.563 0 8.07-2.1171 14.448-6.3572 19.135-2.4481 2.718-6.0882 5.203-10.945 7.426 6.2942 2.223 11.093 4.941 14.386 8.106 5.1612 5.125 7.7533 12.366 7.7533 21.71 0 12.977-4.8152 22.194-14.444 27.651-7.2413 4.176-16.686 6.272-28.309 6.272zm25.487-19.461h29.158c6.2722 0 11.045-1.585 14.28-4.777 3.0021-3.003 4.5032-7.157 4.5032-12.445 0-11.235-6.6053-16.869-19.793-16.869h-28.148zm0-53.041h27.056c6.0742 0 10.349-1.459 12.863-4.34 2.1171-2.507 3.1651-6.153 3.1651-10.945 0-5.019-1.294-8.764-3.9072-11.276-2.7391-2.507-7.6943-3.765-14.875-3.765h-24.302z"/>
  <path d="m786.78 183.49c12.963 0 23.66 4.256 32.076 12.778 8.5173 8.68 12.773 19.956 12.773 33.822 0 14.031-4.3182 25.449-12.94 34.25-8.4123 8.522-19.116 12.778-32.077 12.778-13.084 0-23.802-4.256-32.155-12.778-8.4163-8.516-12.615-19.85-12.615-34.008 0-13.803 4.3672-25.159 13.111-34.064 8.3533-8.522 18.966-12.778 31.827-12.778zm0 19.462c-6.9573 0-12.118 2.986-15.453 8.926-2.5701 4.571-3.8442 10.618-3.8442 18.129 0 10.859 2.4281 18.575 7.2623 23.142 3.1231 3.007 7.0523 4.509 11.788 4.509 7.0143 0 12.156-2.924 15.447-8.765 2.6771-4.735 4.0152-10.965 4.0152-18.723 0-7.795-1.296-13.946-3.8462-18.455-3.3551-5.842-8.4793-8.763-15.37-8.763z"/>
  <path d="m841.81 263.59 12.035-16.027c3.8882 3.171 7.5743 5.515 11.028 7.015 5.8412 2.613 12.362 3.93 19.547 3.93 11.128 0 16.707-3.024 16.707-9.033 0-2.939-1.5441-5.082-4.6092-6.419-2.0591-0.902-7.2423-2.098-15.538-3.598-8.7844-1.669-15.532-4.076-20.203-7.178-7.3013-4.857-10.945-11.872-10.945-21.046 0-9.466 3.7862-16.686 11.36-21.647 6.2312-4.05 14.585-6.089 25.055-6.089 14.259 0 26.335 3.639 36.253 10.944l-11.788 15.864c-7.1203-5.45-15.185-8.19-24.217-8.19-8.6804 0-13.021 2.513-13.021 7.532 0 2.838 1.4381 4.955 4.3402 6.336 2.5071 1.169 7.1993 2.365 14.116 3.597 7.1793 1.281 12.468 2.596 15.86 3.934 11.75 4.666 17.634 12.772 17.634 24.296 0 10.738-4.5672 18.618-13.706 23.638-6.8883 3.786-15.78 5.677-26.64 5.677-11.913 0-22.18-1.891-30.822-5.677-4.0512-1.792-8.2063-4.403-12.446-7.859z"/>
  <path d="m1004.9 243.63 19.871 9.77c-7.8603 15.821-20.761 23.721-38.762 23.721-13.13 0-23.721-4.092-31.731-12.282-8.3104-8.411-12.44-19.709-12.44-33.902 0-14.71 4.3402-26.461 13.02-35.246 8.0903-8.127 18.351-12.198 30.821-12.198 17.261 0 29.891 7.817 37.922 23.475l-20.801 9.853c-1.7301-3.95-3.4001-6.873-5.0002-8.763-2.8001-3.413-6.5402-5.103-11.28-5.103-7.0703 0-12.18 3.006-15.281 9.011-2.5201 4.734-3.7702 10.864-3.7702 18.369 0 18.229 6.5203 27.326 19.551 27.326 5.2802 0 9.6004-1.834 12.94-5.515 1.6801-1.89 3.3101-4.73 4.9402-8.516z"/>
  <path d="m1041.3 275.21v-128.81h25.141v51.968c5.9102-9.918 15.061-14.874 27.461-14.874 10.64 0 18.441 4.071 23.401 12.198 3.3901 5.62 5.1002 12.941 5.1002 21.953v57.565h-25.141v-54.544c0-11.807-4.6302-17.71-13.871-17.71-5.8002 0-10.17 1.996-13.1 6.009-2.5701 3.392-3.8501 7.878-3.8501 13.451v52.794z"/>
  <path d="m0 129.94h78.184v-8.459h-68.35v-50.035h55.056v-8.453h-55.056v-47.974h65.242v-8.459h-75.076z"/>
  <path d="m106.47 129.94h9.8344v-55.217c0-16.749 9.5054-27.613 23.991-27.613 13.125 0 19.851 8.294 19.851 24.669v58.161h9.8334v-55.217c0-16.749 9.4864-27.613 23.991-27.613 13.106 0 19.836 8.294 19.836 24.669v58.161h9.8334v-57.63c0-21.393-10.349-34.007-28.125-34.007-12.594 0-21.564 5.867-27.963 18.128-4.8132-12.261-12.942-18.128-25.529-18.128-11.728 0-19.836 5.188-25.718 16.237v-14.858h-9.8344z"/>
  <path d="m267.3 0h-9.8324v129.94h9.8324v-18.129c6.3993 12.778 17.261 19.508 31.228 19.508 22.612 0 37.448-18.454 37.448-46.763 0-27.424-15.185-46.253-37.448-46.253-13.615 0-24.15 6.731-31.228 19.856zm29.854 122.86c-18.456 0-30.185-14.669-30.185-37.959 0-22.958 12.076-38.141 30.021-38.141 17.94 0 28.821 14.668 28.821 38.494 0 24.148-10.37 37.606-28.657 37.606z"/>
  <path d="m425.2 109.92c-7.9433 8.622-15.88 12.941-28.821 12.941-8.2953 0-15.022-2.409-20.184-7.08-7.0783-6.541-10.022-14.994-10.533-30.199h65.406v-3.434c0-27.097-13.973-43.846-36.584-43.846-23.122 0-39.008 18.991-39.008 46.6 0 27.962 16.234 46.416 40.904 46.416 14.501 0 24.664-4.323 35.036-15.7zm-59.19-32.791c1.5421-10.349 3.6172-15.516 8.2683-21.052 5.0192-6.209 12.099-9.316 20.368-9.316 6.7313 0 12.43 1.911 16.75 5.698 5.8612 5.182 8.6223 11.914 9.6474 24.67z"/>
  <path d="m518.74 129.94h9.8344v-129.94h-9.8344v58.161c-6.7263-13.125-17.26-19.856-31.065-19.856-22.61 0-37.448 18.476-37.448 46.253 0 27.771 15.184 46.763 37.612 46.763 13.642 0 24.175-6.73 30.901-19.508zm-29.853-7.078c-17.961 0-28.473-13.968-28.473-37.796 0-23.984 10.697-38.304 28.636-38.304 18.293 0 30.206 15.014 30.206 37.979 0 23.288-11.751 38.121-30.369 38.121z"/>
  <path d="m624.16 129.94h9.8344v-129.94h-9.8344v58.161c-6.7303-13.125-17.245-19.856-31.049-19.856-22.611 0-37.442 18.476-37.442 46.253 0 27.771 15.186 46.763 37.606 46.763 13.642 0 24.156-6.73 30.886-19.508zm-29.853-7.078c-17.944 0-28.479-13.968-28.479-37.796 0-23.984 10.703-38.304 28.663-38.304 18.292 0 30.179 15.014 30.179 37.979 0 23.288-11.722 38.121-30.363 38.121z"/>
  <path d="m730.82 109.92c-7.9433 8.622-15.886 12.941-28.827 12.941-8.2903 0-15.022-2.409-20.183-7.08-7.0793-6.541-10.017-14.994-10.534-30.199h65.406v-3.434c0-27.097-13.99-43.846-36.578-43.846-23.128 0-39.014 18.991-39.014 46.6 0 27.962 16.234 46.416 40.904 46.416 14.506 0 24.67-4.323 35.036-15.7zm-59.196-32.791c1.5441-10.349 3.6231-15.516 8.2743-21.052 5.0192-6.209 12.097-9.316 20.368-9.316 6.7253 0 12.424 1.911 16.748 5.698 5.8632 5.182 8.6184 11.914 9.6494 24.67z"/>
  <path d="m824.34 129.94h9.8384v-129.94h-9.8384v58.161c-6.7263-13.125-17.26-19.856-31.063-19.856-22.612 0-37.444 18.476-37.444 46.253 0 27.771 15.184 46.763 37.606 46.763 13.642 0 24.175-6.73 30.901-19.508zm-29.847-7.078c-17.967 0-28.479-13.968-28.479-37.796 0-23.984 10.702-38.304 28.642-38.304 18.287 0 30.2 15.014 30.2 37.979 0 23.288-11.745 38.121-30.363 38.121z"/>
  <path d="m911.66 6.562h9.8344v123.38h-9.8344z"/>
  <path d="m991.72 131.32c23.631 0 40.382-19.154 40.382-46.578 0-27.099-16.751-46.438-40.202-46.438-23.641 0-40.382 19.156-40.382 46.438 0 27.424 16.561 46.578 40.202 46.578zm0-8.457c-18.291 0-30.021-14.833-30.021-37.959 0-23.289 11.73-38.141 30.021-38.141 18.281 0 30.201 15.014 30.201 38.141 0 22.943-11.92 37.959-30.201 37.959z"/>
  <path d="m1073.2 129.94h9.8304v-114.92h37.962v-8.459h-85.753v8.459h37.962z"/>
 </g>
</svg>
