<svg width="221.01" height="110.24" overflow="hidden" version="1.1" xmlns="http://www.w3.org/2000/svg">
 <g fill="#fff" aria-label="">
  <path d="m204.44 5.4346c4.3994 0 8.2812 1.8115 11.646 4.917 3.1055 3.3643 4.917 7.2461 4.917 11.646v49.688c0 4.6582-1.8115 8.54-4.917 11.646-3.3643 3.3643-7.2461 4.917-11.646 4.917-3.623 0-6.9873-1.0352-9.834-3.1055-2.8467-2.0703-4.917-4.6582-5.9521-8.0225h-10.61l-30.537 15.527c-1.0352 1.5527-2.3291 2.5879-3.8818 3.623s-3.1055 1.8115-4.6582 2.3291l-40.371 11.128c-1.0352 0.25879-1.8115 0.51758-2.5879 0.51758h-2.0703c-1.8115 0-3.3643 0-4.917-0.51758-1.5527-0.51758-3.1055-1.2939-4.3994-2.3291l-42.183-30.278h-10.093c-1.2939 3.3643-3.3643 5.9521-6.2109 8.0225-2.8467 2.0703-5.9521 3.1055-9.5752 3.1055-4.6582 0-8.54-1.5527-11.646-4.917-3.3643-3.1055-4.917-6.9873-4.917-11.646v-49.688c0-4.3994 1.5527-8.2812 4.917-11.646 3.1055-3.1055 6.9873-4.917 11.646-4.917 3.3643 0 6.4697 1.0352 9.0576 2.8467 2.5879 1.8115 4.6582 4.1406 5.9521 6.7285l48.135-13.198c0.25879 0 1.2939-0.51758 3.1055-1.0352 1.8115-0.51758 3.623-0.77637 5.4346-0.77637h44.253c4.6582 0 8.54 1.8115 11.646 4.917 3.1055 3.1055 4.917 6.9873 4.917 11.646h39.595c1.0352-3.1055 3.1055-5.9521 5.9521-8.0225 2.8467-2.0703 6.2109-3.1055 9.834-3.1055zm-187.88 71.685c1.5527 0 2.8467-0.51758 3.8818-1.5527s1.8115-2.3291 1.8115-3.8818v-49.688c0-1.5527-0.77637-2.8467-1.8115-3.8818-1.0352-1.0352-2.3291-1.5527-3.8818-1.5527s-2.8467 0.51758-3.8818 1.5527c-1.0352 1.0352-1.5527 2.3291-1.5527 3.8818v49.688c0 1.5527 0.51758 2.8467 1.5527 3.8818s2.3291 1.5527 3.8818 1.5527zm119.3 10.869c1.0352-0.25879 2.0703-0.77637 2.5879-1.8115s1.0352-2.0703 1.0352-3.3643c0-0.51758-0.25878-1.0352-0.25878-1.5527 0-0.51758-0.25879-0.77637-0.25879-0.77637l-18.633-23.55-30.02 18.633c-1.2939 0.51758-2.5879 1.0352-3.623 1.2939-1.2939 0.25879-2.5879 0.25879-3.8818 0.25879-4.6582 0-8.54-1.5527-11.646-4.6582-3.3643-3.1055-4.917-7.2461-4.917-11.904 0-2.3291 0.51758-4.6582 1.5527-6.9873 1.0352-2.3291 2.8467-4.3994 4.917-5.9521l31.055-23.291c0.51758-0.51758 1.0352-1.0352 2.0703-1.5527 0.77636-0.51758 1.5527-1.0352 2.0703-1.2939s1.0352-0.51758 2.0703-0.77637c1.0352-0.25879 1.8115-0.51758 2.3291-0.51758l13.457-2.8467c0.51758 0 1.294-0.25879 2.5879-0.51758 1.294-0.25879 2.5879-0.51758 4.1406-0.51758h5.6934c0-1.5527-0.77637-2.8467-1.8115-3.8818-1.0352-1.0352-2.3291-1.5527-3.8818-1.5527h-43.994c-0.77637 0-1.8115 0.25879-2.8467 0.51758-1.0352 0.51758-2.0703 0.77637-2.5879 0.77637l-49.946 13.975v40.112h12.939l44.771 32.09c0.51758 0.51758 1.2939 1.0352 2.0703 1.0352 0.77637 0 1.5527 0 2.5879-0.25879zm39.595-21.738 12.422-0.25879v-38.56h-55.381c-0.51758 0-1.294 0.25879-2.0703 0.25879-1.0352 0.25879-1.5527 0.25879-2.0703 0.25879h-0.25878l-13.198 2.8467c-0.51757 0.25879-0.77636 0.51758-1.2939 0.51758h-0.77637c-0.51758 0.25879-0.77637 0.51758-1.2939 0.77637-0.51758 0.51758-1.0352 0.77637-1.294 1.0352l-30.796 23.291c-0.77637 0.51758-1.2939 1.2939-1.5527 2.0703-0.51758 0.77637-0.51758 1.5527-0.51758 2.0703 0 1.5527 0.51758 3.1055 1.5527 4.1406 1.0352 1.0352 2.3291 1.5527 3.8818 1.5527h1.2939c0.25879 0 0.51758-0.25879 1.0352-0.51758l34.937-21.738h23.55v11.128h-10.61l15.269 18.892c0 0.25879 0 0.77637 0.51758 1.5527 0.51758 1.0352 0.77637 2.0703 1.294 3.3643zm34.419 5.4346v-49.688c0-1.5527-0.77637-2.8467-1.8115-3.8818-1.0352-1.0352-2.3291-1.5527-3.623-1.5527-1.5527 0-3.1055 0.51758-4.1406 1.5527-1.0352 1.0352-1.5527 2.3291-1.5527 3.8818v49.688c0 1.5527 0.51758 2.8467 1.5527 3.8818 1.0352 1.0352 2.5879 1.5527 4.1406 1.5527 1.2939 0 2.5879-0.51758 3.623-1.5527 1.0352-1.0352 1.8115-2.3291 1.8115-3.8818z" fill="#fff"/>
 </g>
</svg>
